<svg xmlns="http://www.w3.org/2000/svg" viewBox="400 820 1204 364" version="1.1" style="max-height: 500px" width="1204" height="364">
<path fill="#EEB063" d="m0 0h4l1 2v38l-6 9h-2v2l-7 6-9 13-5 12-2 10v19l5 19 7 11 9 10 9 7 13 6 12 3 7 1h11l15-4 14-7 12-11 10-14 4-10 3-14v-12l-4-18-6-12-8-10-10-10-5-8 1-36 2-2 8 1 12 6 12 8 12 11 9 11 8 13 6 14 4 15 2 14v23l-3 17-7 19-9 16-11 12-7 7-14 9-20 8-17 4-16 2h-11l-16-2-17-4-20-10-15-12-7-8-8-9-10-16-6-14-4-17-1-23 2-16 4-15 8-17 7-10 9-11 9-8 15-10 14-7z" transform="translate(858,961)"/>
<path fill="#FEFEFE" d="m0 0 29 1 3 8 7 25 11 40 11 41 8 30 3 12 2 1 4-17 14-49 21-71 6-19 5-2h19l3 1 32 112 8 27 4 17h2l3-15 12-40 12-43 13-47 2-9 2-2h27l1 4-16 55-17 58-15 51-8 28-5 8h-22l-4-4-5-15-7-25-10-35-13-43-10-35h-1l-3 15-9 30-9 29-12 41-9 32-4 8-2 2h-22l-3-2-6-19-12-42-8-27-15-51-8-28-9-31z" transform="translate(1018,956)"/>
<path fill="#FEFEFE" d="m0 0h10l16 2 21 6 16 8 11 7 14 12 7 8-1 5-15 15-3 1-8-8v-2l-4-2-8-7-15-9-16-5-10-2h-21l-16 4-12 5-11 7-10 9-8 10-8 16-4 14-1 7v17l5 19 5 12 8 12 6 7 14 10 13 6 11 3 8 1h26l14-2 16-8 8-6 5-5 6-7 8-16 4-14h-79l-1-1v-23l1-1 38-1h44l25 1 1 2v10l-3 22-5 17-7 14-10 13-5 6-11 9-11 7-14 6-15 4-7 1h-37l-16-4-15-6-16-9-13-11-9-10-9-14-7-15-5-19-2-16 1-17 5-21 7-16 6-10 7-9 14-14 15-10 15-7 17-5 10-2z" transform="translate(514,950)"/>
<path fill="#FEFEFE" d="m0 0h45l44 1 1 1v22l-2 2h-87v60h57l27 1 2 6-1 18-2 1h-83v67h83l6 2v23l-10 1h-105l-2-2v-202z" transform="translate(1344,956)"/>
<path fill="#FEFEFE" d="m0 0h1l1 5v116l-1 61h81l2 1v24l-71 1h-37l-2-2v-202l20-1 5-1z" transform="translate(1505,953)"/>
<path fill="#FEFEFE" d="m0 0 26 1 1 1v176l80 1 4 1 1 2v21l-1 1-27 1h-83l-1-1-1-139v-64z" transform="translate(666,956)"/>
<path fill="#EEB063" d="m0 0 10 2 8 6 2 2 1 4v132l-4 6-5 5-4 2h-14l-7-4-5-8-1-4v-28l-1-35v-52l2-16 7-8 6-3z" transform="translate(896,917)"/>
<path fill="#EEB063" d="m0 0 5 2 5 4 10 14 11 17 12 19 7 12 1 8-5 5-4 3-4-1-8-13-13-26-12-27-5-13z" transform="translate(813,859)"/>
<path fill="#EEB063" d="m0 0h3l1 3-6 16-9 20-10 19-8 16-6 8-2 2-4-1-7-7v-6l10-15 12-20 9-14 10-15z" transform="translate(978,859)"/>
<path fill="#EEB064" d="m0 0 9 1 1 1 3 45v20l-3 5-9 1-5-5-1-3v-10l2-32 1-20z" transform="translate(893,829)"/>
<path fill="#EEB165" d="m0 0 7 1 16 6 16 8 21 11 10 7-1 5-5 7-3 1-12-7-18-13-17-12-11-9-3-3z" transform="translate(761,917)"/>
<path fill="#EEB064" d="m0 0h5l-1 4-10 9-20 14-21 13-6 3h-4l-5-7v-5l5-4 23-12 25-12z" transform="translate(1024,919)"/>
</svg>