<svg version="1.0" preserveAspectRatio="xMidYMid meet" viewBox="46.980000000000004 298.079997424 725.76 218.69999811000002" zoomAndPan="magnify" xmlns:xlink="http://www.w3.org/1999/xlink" xmlns="http://www.w3.org/2000/svg" style="max-height: 500px" width="725.76" height="218.69999811000002"><path fill-rule="nonzero" fill-opacity="1" d="M 367.648438 385.011719 L 370.691406 385.621094 L 381.035156 390.488281 L 388.339844 395.964844 L 395.035156 402.660156 L 401.730469 411.789062 L 406.597656 421.527344 L 409.640625 429.441406 L 411.46875 437.960938 L 411.46875 456.21875 L 409.035156 466.566406 L 405.382812 475.695312 L 400.511719 484.214844 L 394.425781 492.128906 L 387.125 498.824219 L 377.386719 504.910156 L 367.648438 509.171875 L 357.910156 511.605469 L 353.648438 512.214844 L 337.214844 512.214844 L 328.695312 510.386719 L 318.347656 506.734375 L 309.828125 501.867188 L 304.351562 497.605469 L 298.265625 492.128906 L 291.570312 483.609375 L 286.699219 475.085938 L 283.046875 465.957031 L 281.222656 458.046875 L 280.613281 451.960938 L 280.613281 442.222656 L 282.441406 430.050781 L 285.484375 421.527344 L 290.960938 411.179688 L 296.4375 403.878906 L 298.871094 400.835938 L 303.742188 396.574219 L 308.609375 392.921875 L 317.132812 388.054688 L 322.609375 385.621094 L 324.433594 385.621094 L 324.433594 412.398438 L 318.957031 416.050781 L 313.480469 422.136719 L 308.609375 430.65625 L 306.175781 438.570312 L 305.566406 443.4375 L 305.566406 450.132812 L 307.394531 459.871094 L 310.4375 467.175781 L 315.304688 473.871094 L 321.390625 479.957031 L 328.695312 484.214844 L 337.824219 487.257812 L 340.867188 487.867188 L 353.039062 487.867188 L 362.777344 484.824219 L 371.300781 479.957031 L 376.777344 475.085938 L 382.253906 467.175781 L 385.296875 460.480469 L 387.125 453.175781 L 387.125 442.832031 L 385.296875 434.308594 L 382.253906 427.003906 L 377.992188 420.3125 L 372.515625 414.832031 L 367.648438 411.789062 L 367.039062 408.136719 Z M 367.648438 385.011719" fill="#b2864a"/><path fill-rule="nonzero" fill-opacity="1" d="M 421.816406 381.359375 L 437.640625 381.359375 L 439.464844 386.226562 L 445.550781 408.136719 L 453.464844 436.136719 L 463.203125 472.042969 L 464.417969 477.523438 L 465.027344 478.128906 L 469.289062 464.132812 L 474.15625 447.089844 L 482.070312 420.3125 L 490.589844 391.097656 L 493.023438 382.574219 L 494.242188 381.359375 L 508.847656 381.359375 L 510.066406 385.011719 L 517.367188 410.574219 L 527.714844 447.089844 L 533.191406 465.957031 L 535.628906 474.480469 L 536.84375 477.523438 L 538.0625 473.261719 L 545.367188 448.917969 L 552.667969 422.746094 L 560.582031 394.140625 L 564.234375 381.96875 L 564.839844 381.359375 L 580.664062 381.359375 L 578.230469 391.707031 L 573.972656 406.3125 L 563.015625 443.4375 L 553.886719 473.871094 L 546.582031 498.824219 L 544.757812 503.082031 L 544.148438 503.691406 L 529.542969 503.691406 L 525.28125 490.910156 L 519.195312 469.609375 L 509.457031 436.136719 L 504.585938 419.09375 L 501.542969 408.136719 L 500.328125 408.136719 L 496.675781 422.136719 L 485.71875 458.046875 L 476.589844 489.695312 L 472.9375 501.867188 L 471.722656 503.691406 L 457.113281 503.691406 L 455.289062 499.433594 L 452.246094 489.695312 L 440.074219 447.089844 L 437.03125 437.351562 L 432.160156 420.3125 L 427.902344 405.703125 L 421.816406 384.402344 Z M 421.816406 381.359375" fill="#0e2234"/><path fill-rule="nonzero" fill-opacity="1" d="M 106.546875 378.316406 L 127.847656 378.316406 L 138.804688 380.75 L 150.367188 385.621094 L 158.890625 391.097656 L 166.800781 397.792969 L 171.0625 402.660156 L 170.453125 405.09375 L 161.933594 413.617188 L 159.496094 414.226562 L 155.238281 409.355469 L 148.542969 403.269531 L 140.628906 398.402344 L 133.328125 395.355469 L 124.195312 393.53125 L 108.980469 393.53125 L 98.636719 395.964844 L 88.898438 400.835938 L 80.375 407.53125 L 74.289062 415.441406 L 70.03125 424.570312 L 66.988281 437.351562 L 66.988281 447.699219 L 70.03125 460.480469 L 74.898438 470.21875 L 80.984375 478.128906 L 87.679688 483.609375 L 93.765625 487.257812 L 104.113281 490.910156 L 110.808594 492.128906 L 125.414062 492.128906 L 135.761719 489.695312 L 145.5 484.824219 L 150.976562 480.566406 L 156.453125 474.480469 L 160.105469 467.175781 L 163.148438 458.652344 L 163.757812 455.003906 L 115.066406 455.003906 L 114.460938 454.394531 L 114.460938 441.003906 L 115.066406 440.394531 L 178.972656 440.394531 L 179.582031 441.003906 L 179.582031 452.566406 L 177.757812 463.523438 L 173.496094 475.085938 L 169.84375 481.171875 L 163.757812 489.085938 L 155.847656 495.78125 L 147.324219 500.648438 L 140.019531 503.691406 L 128.457031 506.734375 L 124.804688 507.34375 L 108.371094 507.34375 L 94.984375 504.300781 L 84.636719 500.039062 L 77.332031 495.78125 L 71.246094 490.910156 L 64.550781 484.214844 L 59.074219 476.304688 L 54.207031 466.566406 L 51.164062 456.21875 L 49.945312 445.265625 L 49.945312 438.570312 L 51.164062 429.441406 L 54.207031 419.09375 L 60.292969 407.53125 L 65.769531 400.226562 L 73.679688 392.3125 L 79.769531 388.054688 L 88.898438 383.183594 L 99.851562 379.53125 Z M 106.546875 378.316406" fill="#0f2334"/><path fill-rule="nonzero" fill-opacity="1" d="M 603.183594 381.359375 L 672.566406 381.359375 L 673.175781 381.96875 L 673.175781 394.75 L 672.566406 395.355469 L 619.007812 395.355469 L 619.007812 433.09375 L 670.742188 433.09375 L 671.351562 434.308594 L 671.351562 446.480469 L 670.742188 447.089844 L 619.007812 447.089844 L 619.007812 489.695312 L 671.960938 489.695312 L 673.175781 490.304688 L 673.785156 503.082031 L 673.175781 503.691406 L 603.792969 503.691406 L 603.183594 503.082031 Z M 603.183594 381.359375" fill="#0f2334"/><path fill-rule="nonzero" fill-opacity="1" d="M 701.78125 381.359375 L 716.996094 381.359375 L 717.605469 381.96875 L 717.605469 483.609375 L 716.996094 489.695312 L 766.90625 489.695312 L 768.121094 490.304688 L 768.121094 503.082031 L 767.515625 503.691406 L 701.78125 503.691406 Z M 701.78125 381.359375" fill="#102334"/><path fill-rule="nonzero" fill-opacity="1" d="M 206.363281 381.359375 L 222.1875 381.359375 L 222.1875 489.695312 L 273.308594 489.695312 L 273.917969 490.304688 L 273.917969 503.691406 L 206.96875 503.691406 L 206.363281 474.480469 Z M 206.363281 381.359375" fill="#0f2234"/><path fill-rule="nonzero" fill-opacity="1" d="M 345.128906 358.839844 L 351.824219 360.058594 L 356.082031 364.316406 L 357.910156 369.796875 L 357.910156 444.046875 L 356.082031 448.308594 L 351.824219 453.175781 L 348.171875 454.394531 L 343.300781 454.394531 L 338.433594 451.960938 L 336 448.917969 L 334.78125 444.65625 L 334.171875 427.613281 L 334.171875 381.359375 L 334.78125 367.96875 L 337.214844 363.101562 L 342.085938 359.449219 Z M 345.128906 358.839844" fill="#b2874b"/><path fill-rule="nonzero" fill-opacity="1" d="M 396.859375 321.105469 L 398.078125 321.714844 L 390.773438 337.539062 L 382.863281 354.578125 L 376.167969 369.1875 L 373.125 372.230469 L 370.082031 371.621094 L 367.039062 369.1875 L 367.648438 365.535156 L 376.777344 351.535156 L 390.167969 331.453125 L 394.425781 324.757812 Z M 396.859375 321.105469" fill="#b3894e"/><path fill-rule="nonzero" fill-opacity="1" d="M 295.828125 322.324219 L 298.265625 324.757812 L 306.785156 338.148438 L 312.871094 347.277344 L 322 361.273438 L 325.042969 366.75 L 324.433594 370.402344 L 320.78125 372.230469 L 317.738281 371.011719 L 311.652344 359.449219 L 303.742188 341.191406 L 295.828125 323.539062 Z M 295.828125 322.324219" fill="#b3874c"/><path fill-rule="nonzero" fill-opacity="1" d="M 345.738281 300.410156 L 346.953125 301.628906 L 348.78125 321.105469 L 349.996094 336.320312 L 349.996094 346.667969 L 347.5625 347.882812 L 343.910156 347.882812 L 342.695312 347.277344 L 342.085938 345.449219 L 342.085938 338.148438 L 344.519531 307.714844 L 345.128906 301.019531 Z M 345.738281 300.410156" fill="#b68d55"/><path fill-rule="nonzero" fill-opacity="1" d="M 262.964844 357.621094 L 266.617188 358.839844 L 281.832031 366.144531 L 301.914062 375.882812 L 304.957031 378.316406 L 304.351562 382.574219 L 302.523438 384.402344 L 298.265625 383.792969 L 287.917969 376.488281 L 276.351562 367.96875 L 267.832031 361.882812 L 262.964844 358.230469 Z M 262.964844 357.621094" fill="#b2874b"/><path fill-rule="nonzero" fill-opacity="1" d="M 427.902344 358.230469 L 429.117188 358.839844 L 421.816406 364.316406 L 412.078125 371.011719 L 393.816406 383.183594 L 391.382812 384.402344 L 388.949219 383.792969 L 386.515625 380.140625 L 387.730469 377.097656 L 397.46875 372.230469 L 416.335938 363.707031 Z M 427.902344 358.230469" fill="#b3884d"/></svg>